<svg xmlns="http://www.w3.org/2000/svg" width="420" height="118" viewBox="0 0 420 118" role="img" aria-labelledby="title desc">
  <title id="title">ProCleanSW logo reversed</title>
  <desc id="desc">White ProCleanSW cleaning logo with sparkles and flowing blue and pink swooshes.</desc>
  <rect width="420" height="118" fill="#10224A"/>
  <g transform="translate(24 13)">
    <path d="M54 28c18 13 44 18 76 15 35-3 62-16 96-29 40-16 81-19 124 2-38-8-70-2-105 12-34 14-66 31-109 34-37 3-70-7-82-34z" fill="#74A2FF"/>
    <path d="M84 67c31 8 58 4 87-7 34-13 66-31 108-34 35-2 67 7 92 31-35-14-66-15-99-6-38 10-71 30-111 35-31 4-58 0-77-19z" fill="#F46CAE"/>
    <path d="M58 14l-7.3 22.2L28 43l22.7 6.8L58 72l7.3-22.2L88 43l-22.7-6.8L58 14z" fill="#ffffff"/>
    <path d="M102 9l-4.2 12.8L85 26l12.8 4.2L102 43l4.2-12.8L119 26l-12.8-4.2L102 9z" fill="#74A2FF"/>
    <path d="M28 62l-3.9 11.6L12 78l12.1 3.4L28 93l3.9-11.6L44 78l-12.1-4.4L28 62z" fill="#F46CAE"/>
    <path d="M128 44l-3 9.2-9.2 3 9.2 3 3 9.2 3-9.2 9.2-3-9.2-3-3-9.2z" fill="#ffffff"/>
  </g>
  <text x="95" y="105" fill="#ffffff" font-family="Inter, Arial, Helvetica, sans-serif" font-size="37" font-weight="900" font-style="italic">ProClean</text>
  <text x="276" y="105" fill="#74A2FF" font-family="Inter, Arial, Helvetica, sans-serif" font-size="37" font-weight="900" font-style="italic">S</text>
  <text x="300" y="105" fill="#F46CAE" font-family="Inter, Arial, Helvetica, sans-serif" font-size="37" font-weight="900" font-style="italic">W</text>
</svg>
