<svg xmlns="http://www.w3.org/2000/svg" width="128" height="128" viewBox="0 0 128 128" role="img" aria-labelledby="title desc">
  <title id="title">ProCleanSW icon</title>
  <desc id="desc">Cleaning sparkles with flowing blue and pink swooshes.</desc>
  <rect width="128" height="128" fill="#ffffff"/>
  <path d="M33 51c16 12 37 14 62-2 13-8 27-12 41-8-21 1-37 11-55 22-25 16-50 14-68-5z" fill="#1A4DC8" transform="translate(-8 0)"/>
  <path d="M39 73c19 6 37 1 57-9 17-9 37-13 57-2-24-3-43 7-63 17-23 12-43 12-60 1z" fill="#D63080" transform="translate(-8 0)"/>
  <path d="M38 19l-7.3 22.2L8 48l22.7 6.8L38 77l7.3-22.2L68 48l-22.7-6.8L38 19z" fill="#1A4DC8"/>
  <path d="M77 17l-4.2 12.8L60 34l12.8 4.2L77 51l4.2-12.8L94 34l-12.8-4.2L77 17z" fill="#D63080"/>
  <path d="M29 84l-3.5 10.4L15 98l10.5 3.6L29 112l3.5-10.4L43 98l-10.5-3.6L29 84z" fill="#D63080"/>
</svg>
