<svg xmlns="http://www.w3.org/2000/svg" width="800" height="500" viewBox="0 0 800 500">
  <rect width="800" height="500" fill="#fdf8f2"/>
  <rect x="0" y="0" width="800" height="56" fill="#3d2c1e"/>
  <rect x="24" y="16" width="120" height="24" rx="4" fill="#c67c52" opacity="0.6"/>
  <rect x="0" y="56" width="800" height="220" fill="#f0e8de"/>
  <rect x="60" y="96" width="320" height="20" rx="4" fill="#3d2c1e" opacity="0.15"/>
  <rect x="60" y="128" width="240" height="52" rx="4" fill="#3d2c1e" opacity="0.25"/>
  <rect x="60" y="192" width="280" height="16" rx="4" fill="#6b5344" opacity="0.2"/>
  <rect x="60" y="216" width="220" height="16" rx="4" fill="#6b5344" opacity="0.15"/>
  <rect x="60" y="256" width="100" height="36" rx="4" fill="#c67c52"/>
  <rect x="172" y="256" width="100" height="36" rx="4" fill="none" stroke="#c8b8ac" stroke-width="1.5"/>
  <rect x="0" y="276" width="800" height="28" fill="#3d2c1e" opacity="0.9"/>
  <rect x="200" y="284" width="400" height="10" rx="3" fill="#c4b2a6" opacity="0.4"/>
  <rect x="60" y="320" width="200" height="14" rx="3" fill="#3d2c1e" opacity="0.12"/>
  <rect x="60" y="344" width="140" height="40" rx="4" fill="#3d2c1e" opacity="0.08"/>
  <rect x="272" y="344" width="140" height="40" rx="4" fill="#3d2c1e" opacity="0.08"/>
  <rect x="484" y="344" width="140" height="40" rx="4" fill="#3d2c1e" opacity="0.08"/>
  <rect x="60" y="400" width="680" height="1" fill="#e8ddd4"/>
  <rect x="200" y="420" width="400" height="60" rx="4" fill="#c67c52" opacity="0.15"/>
  <text x="400" y="455" font-family="Georgia, serif" font-size="14" fill="#c67c52" text-anchor="middle" opacity="0.8">Placeholder — drop in bakery.jpg</text>
</svg>
