<svg xmlns="http://www.w3.org/2000/svg" width="800" height="500" viewBox="0 0 800 500">
  <rect width="800" height="500" fill="#0a1a08"/>
  <rect y="0" width="800" height="52" fill="#0d1e0d"/>
  <rect x="24" y="16" width="110" height="20" rx="4" fill="#1c3519"/>
  <rect x="620" y="14" width="110" height="24" rx="6" fill="#b8d400"/>
  <rect x="24" y="72" width="420" height="14" rx="3" fill="#b8d400" opacity="0.7"/>
  <rect x="24" y="96" width="340" height="36" rx="4" fill="#ffffff" opacity="0.9"/>
  <rect x="24" y="140" width="280" height="12" rx="3" fill="#8ca88c" opacity="0.6"/>
  <rect x="24" y="160" width="300" height="12" rx="3" fill="#8ca88c" opacity="0.6"/>
  <rect x="24" y="190" width="10" height="10" rx="2" fill="#b8d400"/>
  <rect x="40" y="191" width="180" height="8" rx="2" fill="#ffffff" opacity="0.6"/>
  <rect x="24" y="208" width="10" height="10" rx="2" fill="#b8d400"/>
  <rect x="40" y="209" width="160" height="8" rx="2" fill="#ffffff" opacity="0.6"/>
  <rect x="24" y="226" width="10" height="10" rx="2" fill="#b8d400"/>
  <rect x="40" y="227" width="200" height="8" rx="2" fill="#ffffff" opacity="0.6"/>
  <rect x="24" y="256" width="140" height="40" rx="8" fill="#b8d400"/>
  <rect x="176" y="256" width="130" height="40" rx="8" fill="none" stroke="#ffffff" stroke-width="1.5" opacity="0.4"/>
  <rect y="320" width="800" height="60" fill="#b8d400"/>
  <rect x="24" y="400" width="240" height="80" rx="8" fill="#142814"/>
  <rect x="280" y="400" width="240" height="80" rx="8" fill="#142814"/>
  <rect x="536" y="400" width="240" height="80" rx="8" fill="#142814"/>
  <rect x="40" y="415" width="40" height="40" rx="6" fill="#1c3519"/>
  <rect x="92" y="418" width="120" height="10" rx="2" fill="#ffffff" opacity="0.7"/>
  <rect x="92" y="434" width="100" height="8" rx="2" fill="#8ca88c" opacity="0.6"/>
  <rect x="92" y="447" width="80" height="8" rx="2" fill="#8ca88c" opacity="0.5"/>
</svg>
