<svg xmlns="http://www.w3.org/2000/svg" width="800" height="500" viewBox="0 0 800 500">
  <rect width="800" height="500" fill="#0a0a0a"/>
  <rect x="0" y="0" width="800" height="57" fill="#111111"/>
  <rect x="0" y="57" width="800" height="1" fill="#2a2a2a"/>
  <rect x="24" y="16" width="60" height="24" rx="2" fill="#f0d500" opacity="0.7"/>
  <rect x="700" y="16" width="76" height="24" rx="2" fill="#f0d500"/>
  <rect x="60" y="100" width="140" height="14" rx="3" fill="#f0d500" opacity="0.5"/>
  <rect x="60" y="128" width="480" height="80" rx="4" fill="#ffffff" opacity="0.06"/>
  <rect x="60" y="128" width="340" height="36" rx="3" fill="#ffffff" opacity="0.08"/>
  <rect x="60" y="172" width="260" height="28" rx="3" fill="#ffffff" opacity="0.05"/>
  <rect x="60" y="224" width="130" height="40" rx="2" fill="#f0d500"/>
  <rect x="204" y="224" width="130" height="40" rx="2" fill="none" stroke="#2a2a2a" stroke-width="1.5"/>
  <rect x="0" y="290" width="800" height="1" fill="#2a2a2a"/>
  <rect x="0" y="291" width="200" height="80" fill="#111111"/>
  <rect x="200" y="291" width="200" height="80" fill="#111111"/>
  <rect x="400" y="291" width="200" height="80" fill="#111111"/>
  <rect x="600" y="291" width="200" height="80" fill="#111111"/>
  <rect x="200" y="291" width="1" height="80" fill="#2a2a2a"/>
  <rect x="400" y="291" width="1" height="80" fill="#2a2a2a"/>
  <rect x="600" y="291" width="1" height="80" fill="#2a2a2a"/>
  <rect x="30" y="320" width="80" height="20" rx="3" fill="#f0d500" opacity="0.6"/>
  <rect x="230" y="320" width="80" height="20" rx="3" fill="#f0d500" opacity="0.6"/>
  <rect x="430" y="320" width="80" height="20" rx="3" fill="#f0d500" opacity="0.6"/>
  <rect x="630" y="320" width="80" height="20" rx="3" fill="#f0d500" opacity="0.6"/>
  <rect x="30" y="348" width="120" height="8" rx="3" fill="#888" opacity="0.3"/>
  <rect x="230" y="348" width="120" height="8" rx="3" fill="#888" opacity="0.3"/>
  <rect x="430" y="348" width="120" height="8" rx="3" fill="#888" opacity="0.3"/>
  <rect x="630" y="348" width="120" height="8" rx="3" fill="#888" opacity="0.3"/>
  <rect x="0" y="371" width="800" height="1" fill="#2a2a2a"/>
  <rect x="200" y="400" width="400" height="60" rx="2" fill="#f0d500" opacity="0.08"/>
  <text x="400" y="435" font-family="Arial, sans-serif" font-size="13" fill="#f0d500" text-anchor="middle" opacity="0.6">Placeholder — drop in gym.jpg</text>
</svg>
