<svg xmlns="http://www.w3.org/2000/svg" width="1200" height="800" viewBox="0 0 1200 800">
  <rect width="1200" height="800" fill="#FAF7F4"/>
  <rect width="1200" height="68" fill="#FAF7F4" stroke="#D8CFE8" stroke-width="1"/>
  <rect x="24" y="17" width="34" height="34" rx="10" fill="#7045B2"/>
  <rect x="68" y="22" width="120" height="12" rx="6" fill="#1E1529" opacity="0.8"/>
  <rect x="68" y="38" width="90" height="8" rx="4" fill="#8B75A8" opacity="0.5"/>
  <rect x="400" y="26" width="60" height="10" rx="5" fill="#5E4B7A" opacity="0.4"/>
  <rect x="480" y="26" width="60" height="10" rx="5" fill="#5E4B7A" opacity="0.4"/>
  <rect x="560" y="26" width="50" height="10" rx="5" fill="#5E4B7A" opacity="0.4"/>
  <rect x="630" y="26" width="60" height="10" rx="5" fill="#5E4B7A" opacity="0.4"/>
  <rect x="1000" y="20" width="120" height="28" rx="14" fill="none" stroke="#D8CFE8" stroke-width="1.5"/>
  <rect x="1130" y="20" width="46" height="28" rx="14" fill="#7045B2"/>
  <!-- Hero -->
  <rect x="0" y="68" width="1200" height="480" fill="#FAF7F4"/>
  <!-- Hero text column -->
  <rect x="60" y="110" width="100" height="20" rx="10" fill="#EDE6F5"/>
  <rect x="60" y="148" width="380" height="30" rx="6" fill="#1E1529" opacity="0.85"/>
  <rect x="60" y="186" width="320" height="30" rx="6" fill="#1E1529" opacity="0.85"/>
  <rect x="60" y="224" width="260" height="30" rx="6" fill="#7045B2" opacity="0.7"/>
  <rect x="60" y="276" width="340" height="10" rx="5" fill="#5E4B7A" opacity="0.35"/>
  <rect x="60" y="294" width="300" height="10" rx="5" fill="#5E4B7A" opacity="0.35"/>
  <!-- Review badge -->
  <rect x="60" y="322" width="200" height="30" rx="15" fill="#F7F4F0" stroke="#D8CFE8" stroke-width="1"/>
  <!-- Bullets -->
  <circle cx="72" cy="374" r="10" fill="#EDE6F5"/>
  <rect x="90" y="368" width="220" height="10" rx="5" fill="#1E1529" opacity="0.5"/>
  <circle cx="72" cy="400" r="10" fill="#EDE6F5"/>
  <rect x="90" y="394" width="240" height="10" rx="5" fill="#1E1529" opacity="0.5"/>
  <circle cx="72" cy="426" r="10" fill="#EDE6F5"/>
  <rect x="90" y="420" width="200" height="10" rx="5" fill="#1E1529" opacity="0.5"/>
  <circle cx="72" cy="452" r="10" fill="#EDE6F5"/>
  <rect x="90" y="446" width="220" height="10" rx="5" fill="#1E1529" opacity="0.5"/>
  <!-- CTAs -->
  <rect x="60" y="478" width="180" height="46" rx="23" fill="#7045B2"/>
  <rect x="254" y="478" width="200" height="46" rx="23" fill="none" stroke="#D8CFE8" stroke-width="1.5"/>
  <!-- Portrait -->
  <rect x="680" y="88" width="300" height="420" rx="150 150 18 18" fill="url(#heroGrad)"/>
  <defs>
    <linearGradient id="heroGrad" x1="0" y1="0" x2="1" y2="1">
      <stop offset="0%" stop-color="#C4A8E8"/>
      <stop offset="50%" stop-color="#7045B2"/>
      <stop offset="100%" stop-color="#3D1C6E"/>
    </linearGradient>
  </defs>
  <!-- Badge on portrait -->
  <rect x="960" y="110" width="110" height="60" rx="12" fill="#FAF7F4" stroke="#D8CFE8" stroke-width="1"/>
  <rect x="975" y="122" width="60" height="22" rx="4" fill="#7045B2" opacity="0.6"/>
  <rect x="975" y="150" width="80" height="8" rx="4" fill="#8B75A8" opacity="0.4"/>
  <!-- Trust bar -->
  <rect x="0" y="548" width="1200" height="80" fill="#221535"/>
  <rect x="180" y="568" width="60" height="20" rx="4" fill="#EDE6F5" opacity="0.8"/>
  <rect x="180" y="594" width="80" height="10" rx="5" fill="#C4A8E8" opacity="0.35"/>
  <rect x="420" y="568" width="60" height="20" rx="4" fill="#EDE6F5" opacity="0.8"/>
  <rect x="420" y="594" width="70" height="10" rx="5" fill="#C4A8E8" opacity="0.35"/>
  <rect x="650" y="568" width="80" height="20" rx="4" fill="#EDE6F5" opacity="0.8"/>
  <rect x="650" y="594" width="90" height="10" rx="5" fill="#C4A8E8" opacity="0.35"/>
  <rect x="890" y="568" width="60" height="20" rx="4" fill="#EDE6F5" opacity="0.8"/>
  <rect x="890" y="594" width="120" height="10" rx="5" fill="#C4A8E8" opacity="0.35"/>
  <!-- Services section -->
  <rect x="0" y="628" width="1200" height="172" fill="#F7F4F0"/>
  <rect x="60" y="648" width="340" height="140" rx="18" fill="#FAF7F4" stroke="#D8CFE8" stroke-width="1"/>
  <rect x="80" y="666" width="48" height="48" rx="14" fill="#EDE6F5"/>
  <rect x="80" y="726" width="120" height="14" rx="6" fill="#1E1529" opacity="0.7"/>
  <rect x="80" y="746" width="280" height="8" rx="4" fill="#5E4B7A" opacity="0.3"/>
  <rect x="80" y="758" width="240" height="8" rx="4" fill="#5E4B7A" opacity="0.3"/>
  <rect x="430" y="648" width="340" height="140" rx="18" fill="#FAF7F4" stroke="#D8CFE8" stroke-width="1"/>
  <rect x="450" y="666" width="48" height="48" rx="14" fill="#EDE6F5"/>
  <rect x="450" y="726" width="120" height="14" rx="6" fill="#1E1529" opacity="0.7"/>
  <rect x="450" y="746" width="280" height="8" rx="4" fill="#5E4B7A" opacity="0.3"/>
  <rect x="450" y="758" width="240" height="8" rx="4" fill="#5E4B7A" opacity="0.3"/>
  <rect x="800" y="648" width="340" height="140" rx="18" fill="#FAF7F4" stroke="#D8CFE8" stroke-width="1"/>
  <rect x="820" y="666" width="48" height="48" rx="14" fill="#EDE6F5"/>
  <rect x="820" y="726" width="120" height="14" rx="6" fill="#1E1529" opacity="0.7"/>
  <rect x="820" y="746" width="280" height="8" rx="4" fill="#5E4B7A" opacity="0.3"/>
  <rect x="820" y="758" width="240" height="8" rx="4" fill="#5E4B7A" opacity="0.3"/>
</svg>
