<svg xmlns="http://www.w3.org/2000/svg" width="800" height="500" viewBox="0 0 800 500">
  <rect width="800" height="500" fill="#1D3A4A"/>
  <rect width="800" height="60" fill="rgba(255,255,255,0.97)"/>
  <text x="24" y="38" font-family="Georgia, serif" font-size="22" font-weight="600" fill="#1D3A4A">Shaldon</text>
  <text x="24" y="52" font-family="Arial, sans-serif" font-size="8" font-weight="600" fill="#5AAEC8" letter-spacing="2">VILLAGE, DEVON</text>
  <rect x="480" y="16" width="180" height="28" rx="14" fill="#F2EDE3"/>
  <rect x="690" y="18" width="86" height="24" rx="12" fill="#E4DDD2"/>
  <rect y="60" width="800" height="32" fill="rgba(255,255,255,0.9)"/>
  <text x="24" y="81" font-family="Arial, sans-serif" font-size="9" fill="#5A5A5A" letter-spacing="1">STAY</text>
  <text x="68" y="81" font-family="Arial, sans-serif" font-size="9" fill="#5A5A5A" letter-spacing="1">EAT</text>
  <text x="104" y="81" font-family="Arial, sans-serif" font-size="9" fill="#5A5A5A" letter-spacing="1">SHOPS</text>
  <text x="154" y="81" font-family="Arial, sans-serif" font-size="9" fill="#5A5A5A" letter-spacing="1">EVENTS</text>
  <text x="212" y="81" font-family="Arial, sans-serif" font-size="9" fill="#5A5A5A" letter-spacing="1">ACTIVITIES</text>
  <text x="280" y="81" font-family="Arial, sans-serif" font-size="9" fill="#5A5A5A" letter-spacing="1">PARISH COUNCIL</text>
  <text x="376" y="81" font-family="Arial, sans-serif" font-size="9" fill="#5A5A5A" letter-spacing="1">LOCAL DIRECTORY</text>
  <text x="480" y="81" font-family="Arial, sans-serif" font-size="9" fill="#5A5A5A" letter-spacing="1">CONTACT US</text>
  <rect y="92" width="800" height="240" fill="url(#heroGrad)"/>
  <defs>
    <linearGradient id="heroGrad" x1="0" y1="0" x2="1" y2="1">
      <stop offset="0%" stop-color="#122c3c"/>
      <stop offset="50%" stop-color="#1e5470"/>
      <stop offset="100%" stop-color="#132535"/>
    </linearGradient>
  </defs>
  <rect y="92" width="800" height="240" fill="rgba(10,28,42,0.45)"/>
  <text x="400" y="162" font-family="Georgia, serif" font-size="52" font-weight="500" fill="white" text-anchor="middle">Shaldon Village</text>
  <text x="400" y="192" font-family="Georgia, serif" font-size="16" font-style="italic" fill="rgba(255,255,255,0.85)" text-anchor="middle">A timeless fishing village on the banks of the River Teign</text>
  <rect x="140" y="212" width="520" height="44" rx="22" fill="rgba(255,255,255,0.95)"/>
  <text x="280" y="239" font-family="Arial, sans-serif" font-size="13" fill="#909090">Search places, events, activities...</text>
  <rect x="590" y="214" width="70" height="40" rx="20" fill="#7BBDD4"/>
  <text x="625" y="238" font-family="Arial, sans-serif" font-size="11" font-weight="600" fill="white" text-anchor="middle">Search</text>
  <rect y="332" width="800" height="168" fill="#FAF6EF"/>
  <text x="400" y="364" font-family="Georgia, serif" font-size="20" fill="#1D3A4A" text-anchor="middle">Welcome to Shaldon</text>
  <rect x="40" y="380" width="340" height="6" rx="3" fill="#E4DDD2"/>
  <rect x="40" y="394" width="300" height="6" rx="3" fill="#E4DDD2"/>
  <rect x="40" y="408" width="320" height="6" rx="3" fill="#E4DDD2"/>
  <rect x="420" y="376" width="160" height="60" rx="8" fill="white" stroke="#E4DDD2" stroke-width="1"/>
  <text x="500" y="400" font-family="Georgia, serif" font-size="22" fill="#1D3A4A" text-anchor="middle">Ancient</text>
  <text x="500" y="416" font-family="Arial, sans-serif" font-size="8" fill="#5A5A5A" text-anchor="middle">Historic fishing village</text>
  <rect x="600" y="376" width="160" height="60" rx="8" fill="white" stroke="#E4DDD2" stroke-width="1"/>
  <text x="680" y="400" font-family="Georgia, serif" font-size="22" fill="#1D3A4A" text-anchor="middle">3 min</text>
  <text x="680" y="416" font-family="Arial, sans-serif" font-size="8" fill="#5A5A5A" text-anchor="middle">Ferry to Teignmouth</text>
  <rect x="640" y="440" width="50" height="28" rx="14" fill="#25D366"/>
  <text x="665" y="458" font-family="Arial, sans-serif" font-size="8" fill="white" text-anchor="middle">WhatsApp</text>
</svg>
